<svg xmlns="http://www.w3.org/2000/svg" width="51.999" height="52" viewBox="0 0 51.999 52">
  <g id="Group_118" data-name="Group 118" transform="translate(-1.09 -1.09)">
    <path id="Path_73" data-name="Path 73" d="M14.556,45.211A21.4,21.4,0,0,1,6.51,47.67a21.441,21.441,0,0,1,2.457-8.048A1.569,1.569,0,1,0,6.245,38.06a25.263,25.263,0,0,0-2.992,11.3,1.569,1.569,0,0,0,1.569,1.569,25.262,25.262,0,0,0,11.3-2.992,1.57,1.57,0,1,0-1.564-2.724ZM53.088,4.9a3.711,3.711,0,0,0-1.1-2.72,3.964,3.964,0,0,0-2.715-1.09A42.66,42.66,0,0,0,22.12,12.374c-1.977-.769-4.958-1.911-7.219-1.62-3.327.427-8.243,4.954-13.057,9.784a2.581,2.581,0,0,0,1.045,4.278l7.655,2.459q-.889,1.612-1.695,3.268a3.74,3.74,0,0,0,.729,4.271L19.365,44.6a3.749,3.749,0,0,0,4.272.731c1.137-.549,2.215-1.118,3.264-1.693l2.46,7.653a2.579,2.579,0,0,0,4.279,1.045c4.83-4.815,9.357-9.729,9.783-13.054.295-2.283-.851-5.245-1.62-7.223A42.671,42.671,0,0,0,53.088,4.9ZM4.714,22.108c2.555-2.544,8.1-7.92,10.587-8.239a11.144,11.144,0,0,1,4.314.915A56.241,56.241,0,0,0,12.156,24.5Zm17.558,20.4a.61.61,0,0,1-.687-.122l-9.79-9.79a.609.609,0,0,1-.12-.687C23.866,6.654,43.584,4.339,49.339,4.231h.014a.583.583,0,0,1,.424.173.6.6,0,0,1,.176.439C49.841,10.6,47.524,30.316,22.272,42.505Zm18.04-3.624c-.319,2.481-5.7,8.032-8.239,10.585l-2.392-7.441a56.145,56.145,0,0,0,9.716-7.46A11.057,11.057,0,0,1,40.311,38.881Z" transform="translate(0)" fill="#7e56f5"/>
    <path id="Path_74" data-name="Path 74" d="M28.924,17.983a6.6,6.6,0,0,0,0-9.315,6.749,6.749,0,0,0-9.315,0,6.587,6.587,0,0,0,9.315,9.315ZM26.7,15.763a3.524,3.524,0,0,1-4.874,0,3.445,3.445,0,1,1,4.874,0Z" transform="translate(12.339 4.249)" fill="#7e56f5"/>
  </g>
</svg>
