<svg xmlns="http://www.w3.org/2000/svg" xmlns:xlink="http://www.w3.org/1999/xlink" width="52" height="52" viewBox="0 0 52 52">
  <defs>
    <clipPath id="clip-path">
      <path id="Path_76" data-name="Path 76" d="M0-682.665H52v52H0Z" transform="translate(0 682.665)"/>
    </clipPath>
  </defs>
  <g id="Group_120" data-name="Group 120" transform="translate(0 -0.002)">
    <g id="Group_119" data-name="Group 119" transform="translate(0 0.002)" clip-path="url(#clip-path)">
      <path id="Path_75" data-name="Path 75" d="M-554.132-277.065a6.493,6.493,0,0,1,3.263.875v-13.929H-564.8a6.493,6.493,0,0,0,.875-3.264,6.527,6.527,0,0,0-6.527-6.527,6.527,6.527,0,0,0-6.527,6.527,6.5,6.5,0,0,0,.875,3.264h-13.93v13.929a6.494,6.494,0,0,0-3.263-.875,6.527,6.527,0,0,0-6.527,6.527,6.527,6.527,0,0,0,6.527,6.527,6.494,6.494,0,0,0,3.263-.875v13.93h13.93a6.5,6.5,0,0,1-.875-3.264,6.527,6.527,0,0,1,6.527-6.527,6.527,6.527,0,0,1,6.527,6.527,6.494,6.494,0,0,1-.875,3.264h13.929v-13.93a6.493,6.493,0,0,1-3.263.875,6.527,6.527,0,0,1-6.527-6.527A6.527,6.527,0,0,1-554.132-277.065Z" transform="translate(601.345 301.433)" fill="none" stroke="#7e56f5" stroke-linecap="round" stroke-linejoin="round" stroke-width="3"/>
    </g>
  </g>
</svg>
