<svg xmlns="http://www.w3.org/2000/svg" width="53.834" height="47.315" viewBox="0 0 53.834 47.315">
  <g id="Group_122" data-name="Group 122" transform="translate(0 -31)">
    <path id="Path_78" data-name="Path 78" d="M50.475,66.617a17.847,17.847,0,0,0-2.7-23.813A21.058,21.058,0,0,0,35.92,37.458q-.042-.052-.088-.1A21.313,21.313,0,0,0,20.5,31C9.363,31,0,39.3,0,49.926A17.765,17.765,0,0,0,3.356,60.308L.285,69.951A1.577,1.577,0,0,0,2.5,71.835l9.34-4.749A21.655,21.655,0,0,0,17.9,68.7a21.171,21.171,0,0,0,15.429,6.46,22.057,22.057,0,0,0,8.66-1.766l9.34,4.749a1.577,1.577,0,0,0,2.218-1.885Zm-38-2.7a1.577,1.577,0,0,0-1.391.019L4.435,67.314l2.172-6.82a1.577,1.577,0,0,0-.26-1.45,14.707,14.707,0,0,1-3.193-9.118c0-8.7,7.782-15.772,17.348-15.772a18.494,18.494,0,0,1,10.569,3.269C20.94,38.442,12.827,46.354,12.827,56.235A17.682,17.682,0,0,0,15.1,64.917a18.248,18.248,0,0,1-2.621-1ZM42.744,70.24a1.577,1.577,0,0,0-1.391-.019,18.808,18.808,0,0,1-8.024,1.785c-9.566,0-17.348-7.075-17.348-15.772s7.782-15.772,17.348-15.772,17.348,7.075,17.348,15.772a14.706,14.706,0,0,1-3.193,9.118,1.578,1.578,0,0,0-.26,1.45l2.172,6.82Z" transform="translate(0 0)" fill="#7e56f5"/>
    <circle id="Ellipse_10" data-name="Ellipse 10" cx="1.577" cy="1.577" r="1.577" transform="translate(25.338 54.658)" fill="#7e56f5"/>
    <circle id="Ellipse_11" data-name="Ellipse 11" cx="1.577" cy="1.577" r="1.577" transform="translate(31.647 54.658)" fill="#7e56f5"/>
    <circle id="Ellipse_12" data-name="Ellipse 12" cx="1.577" cy="1.577" r="1.577" transform="translate(37.955 54.658)" fill="#7e56f5"/>
  </g>
</svg>
