<svg xmlns="http://www.w3.org/2000/svg" width="51.968" height="51.969" viewBox="0 0 51.968 51.969">
  <g id="Group_123" data-name="Group 123" transform="translate(-2.002 -1.999)">
    <g id="Group_123-2" data-name="Group 123" transform="translate(2.002 1.999)">
      <path id="Path_79" data-name="Path 79" d="M41.052,24.916a1.732,1.732,0,1,0-2.529-2.368L26.813,35.055,22,29.91a1.732,1.732,0,1,0-2.529,2.368l6.081,6.5a1.732,1.732,0,0,0,2.529,0Z" transform="translate(-4.277 -4.676)" fill="#7e56f5"/>
      <path id="Path_80" data-name="Path 80" d="M33.026,3.99a7.376,7.376,0,0,0-10.082,0l-2.456,2.3a3.912,3.912,0,0,1-2.542,1.055l-3.362.111a7.376,7.376,0,0,0-7.128,7.128l-.111,3.362A3.912,3.912,0,0,1,6.29,20.489l-2.3,2.456a7.376,7.376,0,0,0,0,10.08l2.3,2.456a3.916,3.916,0,0,1,1.054,2.544l.111,3.362a7.376,7.376,0,0,0,7.128,7.128l3.362.111a3.912,3.912,0,0,1,2.543,1.054l2.456,2.3a7.376,7.376,0,0,0,10.08,0l2.456-2.3a3.912,3.912,0,0,1,2.544-1.054l3.362-.111a7.376,7.376,0,0,0,7.128-7.128l.111-3.362a3.912,3.912,0,0,1,1.054-2.544l2.3-2.456a7.376,7.376,0,0,0,0-10.08l-2.3-2.456a3.912,3.912,0,0,1-1.054-2.543l-.111-3.362a7.376,7.376,0,0,0-7.128-7.128l-3.362-.111a3.912,3.912,0,0,1-2.544-1.054ZM25.312,6.519a3.912,3.912,0,0,1,5.346,0l2.456,2.3a7.376,7.376,0,0,0,4.8,1.986l3.362.112a3.912,3.912,0,0,1,3.78,3.78l.112,3.362a7.376,7.376,0,0,0,1.986,4.8l2.3,2.456a3.912,3.912,0,0,1,0,5.346l-2.3,2.456a7.376,7.376,0,0,0-1.987,4.8l-.111,3.362a3.912,3.912,0,0,1-3.78,3.78l-3.362.112a7.376,7.376,0,0,0-4.8,1.986l-2.456,2.3a3.912,3.912,0,0,1-5.346,0l-2.456-2.3a7.376,7.376,0,0,0-4.8-1.987L14.7,45.052a3.912,3.912,0,0,1-3.78-3.78l-.111-3.362a7.376,7.376,0,0,0-1.987-4.8l-2.3-2.456a3.912,3.912,0,0,1,0-5.346l2.3-2.456a7.376,7.376,0,0,0,1.987-4.8l.111-3.362a3.912,3.912,0,0,1,3.78-3.78l3.362-.111a7.376,7.376,0,0,0,4.8-1.987Z" transform="translate(-2.002 -1.999)" fill="#7e56f5" fill-rule="evenodd"/>
    </g>
  </g>
</svg>
