<svg xmlns="http://www.w3.org/2000/svg" width="52.387" height="51.969" viewBox="0 0 52.387 51.969">
  <g id="Group_124" data-name="Group 124" transform="translate(-1.3 -1.381)">
    <g id="Group_125" data-name="Group 125" transform="translate(1.3 1.38)">
      <path id="Path_84" data-name="Path 84" d="M48.6,30a1.871,1.871,0,0,1-1.836-1.64,19.177,19.177,0,0,0-8.176-13.733,1.83,1.83,0,1,1,2.081-3.011,22.852,22.852,0,0,1,9.718,16.352A1.858,1.858,0,0,1,48.742,30Zm-41.933.122h-.2a1.875,1.875,0,0,1-1.64-2.032A22.9,22.9,0,0,1,14.4,11.71a1.844,1.844,0,1,1,2.13,3.011A19.209,19.209,0,0,0,8.473,28.478a1.811,1.811,0,0,1-1.811,1.64ZM27.641,53.349A22.81,22.81,0,0,1,17.335,50.9,1.839,1.839,0,1,1,19,47.621a19.349,19.349,0,0,0,16.989.147,1.834,1.834,0,0,1,1.591,3.3,22.563,22.563,0,0,1-9.939,2.277Zm0-34.687a8.641,8.641,0,1,1,8.641-8.641,8.64,8.64,0,0,1-8.641,8.641Zm0-13.586a4.969,4.969,0,1,0,4.969,4.969,4.973,4.973,0,0,0-4.969-4.969ZM9.942,48.6a8.641,8.641,0,1,1,8.641-8.641A8.64,8.64,0,0,1,9.942,48.6Zm0-13.611a4.969,4.969,0,1,0,4.969,4.969A4.973,4.973,0,0,0,9.942,34.99ZM45.046,48.6a8.641,8.641,0,1,1,8.641-8.641A8.641,8.641,0,0,1,45.046,48.6Zm0-13.611a4.969,4.969,0,1,0,4.969,4.969,4.973,4.973,0,0,0-4.969-4.969Z" transform="translate(-1.299 -1.38)" fill="#7e56f5"/>
    </g>
  </g>
</svg>
