<svg xmlns="http://www.w3.org/2000/svg" width="71.4" height="53.55" viewBox="0 0 71.4 53.55">
  <g id="Group_31" data-name="Group 31" opacity="0.03">
    <path id="Path_20" data-name="Path 20" d="M26.775,4H6.694A6.7,6.7,0,0,0,0,10.694V30.775a6.7,6.7,0,0,0,6.694,6.694H15.7L12.314,54.895A2.231,2.231,0,0,0,14.5,57.55h7.229a4.48,4.48,0,0,0,4.253-3.108l6.493-15.407a2.569,2.569,0,0,0,.1-.268,24.589,24.589,0,0,0,.895-6.571v-21.5A6.7,6.7,0,0,0,26.775,4ZM64.706,4H44.625a6.7,6.7,0,0,0-6.694,6.694V30.775a6.7,6.7,0,0,0,6.694,6.694h9.008L50.245,54.895a2.225,2.225,0,0,0,2.189,2.655h7.229a4.474,4.474,0,0,0,4.251-3.108l6.5-15.407c.036-.089.067-.178.094-.27A24.585,24.585,0,0,0,71.4,32.2v-21.5A6.7,6.7,0,0,0,64.706,4Z" transform="translate(0 -4)"/>
  </g>
</svg>
