<svg xmlns="http://www.w3.org/2000/svg" width="16.295" height="16.324" viewBox="0 0 16.295 16.324">
  <path id="phone_2_" data-name="phone (2)" d="M16.905,13.1v2.231a1.488,1.488,0,0,1-1.622,1.488,14.72,14.72,0,0,1-6.419-2.284A14.5,14.5,0,0,1,4.4,10.07,14.72,14.72,0,0,1,2.118,3.622,1.488,1.488,0,0,1,3.6,2H5.83A1.488,1.488,0,0,1,7.317,3.279a9.551,9.551,0,0,0,.521,2.09A1.488,1.488,0,0,1,7.5,6.939l-.945.945a11.9,11.9,0,0,0,4.463,4.463l.945-.945a1.488,1.488,0,0,1,1.569-.335,9.551,9.551,0,0,0,2.09.521,1.488,1.488,0,0,1,1.279,1.51Z" transform="translate(-1.361 -1.25)" fill="none" stroke="#fff" stroke-linecap="round" stroke-linejoin="round" stroke-width="1.5"/>
</svg>
