<svg xmlns="http://www.w3.org/2000/svg" width="71.4" height="53.55" viewBox="0 0 71.4 53.55">
  <g id="Group_30" data-name="Group 30" opacity="0.03">
    <path id="Path_20" data-name="Path 20" d="M44.625,57.55H64.706A6.7,6.7,0,0,0,71.4,50.856V30.775a6.7,6.7,0,0,0-6.694-6.694H55.7L59.086,6.655A2.231,2.231,0,0,0,56.9,4H49.668a4.48,4.48,0,0,0-4.253,3.108L38.922,22.515a2.57,2.57,0,0,0-.1.268,24.589,24.589,0,0,0-.895,6.571v21.5A6.7,6.7,0,0,0,44.625,57.55Zm-37.931,0H26.775a6.7,6.7,0,0,0,6.694-6.694V30.775a6.7,6.7,0,0,0-6.694-6.694H17.767L21.154,6.655A2.225,2.225,0,0,0,18.966,4H11.736A4.474,4.474,0,0,0,7.486,7.108L.988,22.515c-.036.089-.067.179-.094.27A24.585,24.585,0,0,0,0,29.354v21.5A6.7,6.7,0,0,0,6.694,57.55Z" transform="translate(0 -4)"/>
  </g>
</svg>
