<svg xmlns="http://www.w3.org/2000/svg" width="47.37" height="52" viewBox="0 0 47.37 52">
  <g id="Group_20" data-name="Group 20" transform="translate(-22.793)">
    <path id="Path_11" data-name="Path 11" d="M68.637,8.273A6.754,6.754,0,0,1,61.89,1.526V0H31.066V1.526a6.754,6.754,0,0,1-6.746,6.746H22.793v10.15A35.636,35.636,0,0,0,45.943,51.8l.535.2.535-.2a35.636,35.636,0,0,0,23.15-33.377V8.273Zm-1.526,10.15h0A32.584,32.584,0,0,1,46.478,48.735,32.584,32.584,0,0,1,25.846,18.423V11.207A9.823,9.823,0,0,0,34,3.053H58.957a9.823,9.823,0,0,0,8.154,8.154Z" transform="translate(0)" fill="#2d3032"/>
    <path id="Path_12" data-name="Path 12" d="M145.279,141.187l-10.1,10.1-3.518-3.518-6.475,6.476,9.994,9.994,16.579-16.579ZM129.5,154.248l2.159-2.159,3.518,3.518,10.1-10.1,2.159,2.159-12.262,12.262Z" transform="translate(-91.99 -126.848)" fill="#2d3032"/>
  </g>
</svg>
