<svg id="Group_21" data-name="Group 21" xmlns="http://www.w3.org/2000/svg" width="52" height="52" viewBox="0 0 52 52">
  <path id="Path_13" data-name="Path 13" d="M160.864,150.109a10.755,10.755,0,1,0,10.755,10.755A10.767,10.767,0,0,0,160.864,150.109Zm0,18.462a7.708,7.708,0,1,1,7.708-7.708A7.716,7.716,0,0,1,160.864,168.571Z" transform="translate(-134.864 -134.864)" fill="#2d3032"/>
  <path id="Path_14" data-name="Path 14" d="M213.764,208.99a4.774,4.774,0,1,0,4.774,4.774A4.78,4.78,0,0,0,213.764,208.99Zm0,6.5a1.728,1.728,0,1,1,1.728-1.728A1.73,1.73,0,0,1,213.764,215.492Z" transform="translate(-187.764 -187.764)" fill="#2d3032"/>
  <path id="Path_15" data-name="Path 15" d="M50.477,24.477H47.818A21.872,21.872,0,0,0,27.523,4.182V1.523a1.523,1.523,0,0,0-3.047,0V4.182A21.872,21.872,0,0,0,4.182,24.477H1.523a1.523,1.523,0,0,0,0,3.047H4.182A21.872,21.872,0,0,0,24.477,47.818v2.658a1.523,1.523,0,0,0,3.047,0V47.818A21.872,21.872,0,0,0,47.818,27.523h2.658a1.523,1.523,0,0,0,0-3.047Zm-8.739,3.047h3.025A18.855,18.855,0,0,1,27.523,44.763V41.737a1.523,1.523,0,1,0-3.047,0v3.025A18.854,18.854,0,0,1,7.237,27.523h3.025a1.523,1.523,0,0,0,0-3.047H7.237A18.855,18.855,0,0,1,24.477,7.237v3.025a1.523,1.523,0,0,0,3.047,0V7.237A18.855,18.855,0,0,1,44.763,24.477H41.737a1.523,1.523,0,0,0,0,3.047Z" fill="#2d3032"/>
</svg>
