<svg xmlns="http://www.w3.org/2000/svg" width="43.841" height="52" viewBox="0 0 43.841 52">
  <g id="Group_22" data-name="Group 22" transform="translate(-0.5)">
    <path id="Path_16" data-name="Path 16" d="M106.517,91.538a5.6,5.6,0,1,1,5.6-5.6A5.61,5.61,0,0,1,106.517,91.538Zm0-8.159a2.556,2.556,0,1,0,2.556,2.556A2.559,2.559,0,0,0,106.517,83.379Zm0,0" transform="translate(-90.216 -72.173)" fill="#2d3032"/>
    <path id="Path_17" data-name="Path 17" d="M94.594,31.851H82.355a1.523,1.523,0,0,1-1.523-1.523v-2.04a7.643,7.643,0,0,1,15.286,0v2.04A1.524,1.524,0,0,1,94.594,31.851ZM83.879,28.8h9.192v-.516a4.6,4.6,0,0,0-9.192,0ZM114.5,20.429h-8.485a5.609,5.609,0,0,1-5.6-5.6V6.34a1.523,1.523,0,1,1,3.047,0v8.486a2.559,2.559,0,0,0,2.556,2.556H114.5a1.523,1.523,0,0,1,0,3.047Zm0,0" transform="translate(-72.173 -4.328)" fill="#2d3032"/>
    <path id="Path_18" data-name="Path 18" d="M38.738,52H6.1A5.609,5.609,0,0,1,.5,46.4V5.6A5.609,5.609,0,0,1,6.1,0H29.764a1.523,1.523,0,0,1,1.077.446L43.895,13.5a1.524,1.524,0,0,1,.446,1.077V46.4A5.61,5.61,0,0,1,38.738,52ZM6.1,3.047A2.559,2.559,0,0,0,3.547,5.6V46.4A2.559,2.559,0,0,0,6.1,48.953H38.738A2.559,2.559,0,0,0,41.294,46.4V15.209L29.133,3.047Zm0,0" fill="#2d3032"/>
    <path id="Path_19" data-name="Path 19" d="M106.832,260.365H82.355a1.523,1.523,0,0,1,0-3.047h24.477a1.523,1.523,0,1,1,0,3.047Zm0-8.159H82.355a1.523,1.523,0,0,1,0-3.047h24.477a1.523,1.523,0,0,1,0,3.047Zm0-8.159h-4.08a1.523,1.523,0,0,1,0-3.047h4.08a1.523,1.523,0,1,1,0,3.047Zm0,0" transform="translate(-72.173 -216.523)" fill="#2d3032"/>
  </g>
</svg>
